<mxfile host="app.diagrams.net" modified="2024-02-16T01:38:22.077Z" agent="Mozilla/5.0 (Windows NT 10.0; Win64; x64) AppleWebKit/537.36 (KHTML, like Gecko) Chrome/121.0.0.0 Safari/537.36" etag="SiPy_fh1--XHtFEHwrGh" version="23.1.5" type="github">
  <diagram name="Page-1" id="MW_719pMpH5eKl33MDSX">
    <mxGraphModel dx="2695" dy="1633" grid="1" gridSize="10" guides="1" tooltips="1" connect="1" arrows="1" fold="1" page="1" pageScale="1" pageWidth="850" pageHeight="1100" math="0" shadow="0">
      <root>
        <mxCell id="0" />
        <mxCell id="1" parent="0" />
        <mxCell id="WLDPPpvRlOWAVXOPyNu4-1" value="" style="shape=table;startSize=0;container=1;collapsible=0;childLayout=tableLayout;fontSize=16;" parent="1" vertex="1">
          <mxGeometry x="190" y="240" width="455" height="40" as="geometry" />
        </mxCell>
        <mxCell id="WLDPPpvRlOWAVXOPyNu4-2" value="" style="shape=tableRow;horizontal=0;startSize=0;swimlaneHead=0;swimlaneBody=0;strokeColor=inherit;top=0;left=0;bottom=0;right=0;collapsible=0;dropTarget=0;fillColor=none;points=[[0,0.5],[1,0.5]];portConstraint=eastwest;fontSize=16;" parent="WLDPPpvRlOWAVXOPyNu4-1" vertex="1">
          <mxGeometry width="455" height="40" as="geometry" />
        </mxCell>
        <mxCell id="WLDPPpvRlOWAVXOPyNu4-14" value="PatientID" style="shape=partialRectangle;html=1;whiteSpace=wrap;connectable=0;strokeColor=#82b366;overflow=hidden;fillColor=#d5e8d4;top=0;left=0;bottom=0;right=0;pointerEvents=1;fontSize=16;" parent="WLDPPpvRlOWAVXOPyNu4-2" vertex="1">
          <mxGeometry width="70" height="40" as="geometry">
            <mxRectangle width="70" height="40" as="alternateBounds" />
          </mxGeometry>
        </mxCell>
        <mxCell id="WLDPPpvRlOWAVXOPyNu4-3" value="Name" style="shape=partialRectangle;html=1;whiteSpace=wrap;connectable=0;strokeColor=inherit;overflow=hidden;fillColor=none;top=0;left=0;bottom=0;right=0;pointerEvents=1;fontSize=16;" parent="WLDPPpvRlOWAVXOPyNu4-2" vertex="1">
          <mxGeometry x="70" width="60" height="40" as="geometry">
            <mxRectangle width="60" height="40" as="alternateBounds" />
          </mxGeometry>
        </mxCell>
        <mxCell id="WLDPPpvRlOWAVXOPyNu4-4" value="Phone" style="shape=partialRectangle;html=1;whiteSpace=wrap;connectable=0;strokeColor=inherit;overflow=hidden;fillColor=none;top=0;left=0;bottom=0;right=0;pointerEvents=1;fontSize=16;" parent="WLDPPpvRlOWAVXOPyNu4-2" vertex="1">
          <mxGeometry x="130" width="65" height="40" as="geometry">
            <mxRectangle width="65" height="40" as="alternateBounds" />
          </mxGeometry>
        </mxCell>
        <mxCell id="WLDPPpvRlOWAVXOPyNu4-5" value="Address" style="shape=partialRectangle;html=1;whiteSpace=wrap;connectable=0;strokeColor=inherit;overflow=hidden;fillColor=none;top=0;left=0;bottom=0;right=0;pointerEvents=1;fontSize=16;" parent="WLDPPpvRlOWAVXOPyNu4-2" vertex="1">
          <mxGeometry x="195" width="65" height="40" as="geometry">
            <mxRectangle width="65" height="40" as="alternateBounds" />
          </mxGeometry>
        </mxCell>
        <mxCell id="WLDPPpvRlOWAVXOPyNu4-16" value="City" style="shape=partialRectangle;html=1;whiteSpace=wrap;connectable=0;strokeColor=inherit;overflow=hidden;fillColor=none;top=0;left=0;bottom=0;right=0;pointerEvents=1;fontSize=16;" parent="WLDPPpvRlOWAVXOPyNu4-2" vertex="1">
          <mxGeometry x="260" width="65" height="40" as="geometry">
            <mxRectangle width="65" height="40" as="alternateBounds" />
          </mxGeometry>
        </mxCell>
        <mxCell id="WLDPPpvRlOWAVXOPyNu4-17" value="State" style="shape=partialRectangle;html=1;whiteSpace=wrap;connectable=0;strokeColor=inherit;overflow=hidden;fillColor=none;top=0;left=0;bottom=0;right=0;pointerEvents=1;fontSize=16;" parent="WLDPPpvRlOWAVXOPyNu4-2" vertex="1">
          <mxGeometry x="325" width="65" height="40" as="geometry">
            <mxRectangle width="65" height="40" as="alternateBounds" />
          </mxGeometry>
        </mxCell>
        <mxCell id="WLDPPpvRlOWAVXOPyNu4-18" value="Zip" style="shape=partialRectangle;html=1;whiteSpace=wrap;connectable=0;strokeColor=inherit;overflow=hidden;fillColor=none;top=0;left=0;bottom=0;right=0;pointerEvents=1;fontSize=16;" parent="WLDPPpvRlOWAVXOPyNu4-2" vertex="1">
          <mxGeometry x="390" width="65" height="40" as="geometry">
            <mxRectangle width="65" height="40" as="alternateBounds" />
          </mxGeometry>
        </mxCell>
        <mxCell id="WLDPPpvRlOWAVXOPyNu4-73" style="edgeStyle=orthogonalEdgeStyle;rounded=0;orthogonalLoop=1;jettySize=auto;html=1;" parent="WLDPPpvRlOWAVXOPyNu4-1" source="WLDPPpvRlOWAVXOPyNu4-2" edge="1">
          <mxGeometry relative="1" as="geometry">
            <mxPoint x="103" as="targetPoint" />
            <Array as="points">
              <mxPoint x="-20" y="20" />
              <mxPoint x="-20" y="-30" />
              <mxPoint x="103" y="-30" />
            </Array>
          </mxGeometry>
        </mxCell>
        <mxCell id="WLDPPpvRlOWAVXOPyNu4-74" style="edgeStyle=orthogonalEdgeStyle;rounded=0;orthogonalLoop=1;jettySize=auto;html=1;" parent="WLDPPpvRlOWAVXOPyNu4-1" source="WLDPPpvRlOWAVXOPyNu4-2" edge="1">
          <mxGeometry relative="1" as="geometry">
            <mxPoint x="158" as="targetPoint" />
            <Array as="points">
              <mxPoint x="-20" y="20" />
              <mxPoint x="-20" y="-30" />
              <mxPoint x="158" y="-30" />
            </Array>
          </mxGeometry>
        </mxCell>
        <mxCell id="WLDPPpvRlOWAVXOPyNu4-76" style="edgeStyle=orthogonalEdgeStyle;rounded=0;orthogonalLoop=1;jettySize=auto;html=1;" parent="WLDPPpvRlOWAVXOPyNu4-1" source="WLDPPpvRlOWAVXOPyNu4-2" edge="1">
          <mxGeometry relative="1" as="geometry">
            <mxPoint x="223" as="targetPoint" />
            <Array as="points">
              <mxPoint x="-20" y="20" />
              <mxPoint x="-20" y="-30" />
              <mxPoint x="223" y="-30" />
            </Array>
          </mxGeometry>
        </mxCell>
        <mxCell id="WLDPPpvRlOWAVXOPyNu4-77" style="edgeStyle=orthogonalEdgeStyle;rounded=0;orthogonalLoop=1;jettySize=auto;html=1;entryX=0.624;entryY=-0.075;entryDx=0;entryDy=0;entryPerimeter=0;" parent="WLDPPpvRlOWAVXOPyNu4-1" source="WLDPPpvRlOWAVXOPyNu4-2" target="WLDPPpvRlOWAVXOPyNu4-2" edge="1">
          <mxGeometry relative="1" as="geometry">
            <Array as="points">
              <mxPoint x="-20" y="20" />
              <mxPoint x="-20" y="-30" />
              <mxPoint x="285" y="-30" />
              <mxPoint x="285" y="-3" />
            </Array>
          </mxGeometry>
        </mxCell>
        <mxCell id="WLDPPpvRlOWAVXOPyNu4-78" style="edgeStyle=orthogonalEdgeStyle;rounded=0;orthogonalLoop=1;jettySize=auto;html=1;" parent="WLDPPpvRlOWAVXOPyNu4-1" source="WLDPPpvRlOWAVXOPyNu4-2" edge="1">
          <mxGeometry relative="1" as="geometry">
            <mxPoint x="351" as="targetPoint" />
            <Array as="points">
              <mxPoint x="-20" y="20" />
              <mxPoint x="-20" y="-30" />
              <mxPoint x="351" y="-30" />
            </Array>
          </mxGeometry>
        </mxCell>
        <mxCell id="WLDPPpvRlOWAVXOPyNu4-79" style="edgeStyle=orthogonalEdgeStyle;rounded=0;orthogonalLoop=1;jettySize=auto;html=1;" parent="WLDPPpvRlOWAVXOPyNu4-1" source="WLDPPpvRlOWAVXOPyNu4-2" edge="1">
          <mxGeometry relative="1" as="geometry">
            <mxPoint x="405" as="targetPoint" />
            <Array as="points">
              <mxPoint x="-20" y="20" />
              <mxPoint x="-20" y="-30" />
              <mxPoint x="405" y="-30" />
            </Array>
          </mxGeometry>
        </mxCell>
        <mxCell id="WLDPPpvRlOWAVXOPyNu4-15" value="Patient" style="text;html=1;align=center;verticalAlign=middle;whiteSpace=wrap;rounded=0;" parent="1" vertex="1">
          <mxGeometry x="190" y="280" width="60" height="30" as="geometry" />
        </mxCell>
        <mxCell id="WLDPPpvRlOWAVXOPyNu4-19" value="" style="shape=table;startSize=0;container=1;collapsible=0;childLayout=tableLayout;fontSize=16;" parent="1" vertex="1">
          <mxGeometry x="180" y="130" width="500" height="40" as="geometry" />
        </mxCell>
        <mxCell id="WLDPPpvRlOWAVXOPyNu4-20" value="" style="shape=tableRow;horizontal=0;startSize=0;swimlaneHead=0;swimlaneBody=0;strokeColor=inherit;top=0;left=0;bottom=0;right=0;collapsible=0;dropTarget=0;fillColor=none;points=[[0,0.5],[1,0.5]];portConstraint=eastwest;fontSize=16;" parent="WLDPPpvRlOWAVXOPyNu4-19" vertex="1">
          <mxGeometry width="500" height="40" as="geometry" />
        </mxCell>
        <mxCell id="WLDPPpvRlOWAVXOPyNu4-21" value="App_Num" style="shape=partialRectangle;html=1;whiteSpace=wrap;connectable=0;strokeColor=#82b366;overflow=hidden;fillColor=#d5e8d4;top=0;left=0;bottom=0;right=0;pointerEvents=1;fontSize=16;" parent="WLDPPpvRlOWAVXOPyNu4-20" vertex="1">
          <mxGeometry width="80" height="40" as="geometry">
            <mxRectangle width="80" height="40" as="alternateBounds" />
          </mxGeometry>
        </mxCell>
        <mxCell id="WLDPPpvRlOWAVXOPyNu4-22" value="PatientID" style="shape=partialRectangle;html=1;whiteSpace=wrap;connectable=0;strokeColor=inherit;overflow=hidden;fillColor=none;top=0;left=0;bottom=0;right=0;pointerEvents=1;fontSize=16;" parent="WLDPPpvRlOWAVXOPyNu4-20" vertex="1">
          <mxGeometry x="80" width="70" height="40" as="geometry">
            <mxRectangle width="70" height="40" as="alternateBounds" />
          </mxGeometry>
        </mxCell>
        <mxCell id="WLDPPpvRlOWAVXOPyNu4-23" value="Doc_EmpID" style="shape=partialRectangle;html=1;whiteSpace=wrap;connectable=0;strokeColor=inherit;overflow=hidden;fillColor=none;top=0;left=0;bottom=0;right=0;pointerEvents=1;fontSize=16;" parent="WLDPPpvRlOWAVXOPyNu4-20" vertex="1">
          <mxGeometry x="150" width="90" height="40" as="geometry">
            <mxRectangle width="90" height="40" as="alternateBounds" />
          </mxGeometry>
        </mxCell>
        <mxCell id="WLDPPpvRlOWAVXOPyNu4-33" value="App_Date" style="shape=partialRectangle;html=1;whiteSpace=wrap;connectable=0;strokeColor=inherit;overflow=hidden;fillColor=none;top=0;left=0;bottom=0;right=0;pointerEvents=1;fontSize=16;" parent="WLDPPpvRlOWAVXOPyNu4-20" vertex="1">
          <mxGeometry x="240" width="80" height="40" as="geometry">
            <mxRectangle width="80" height="40" as="alternateBounds" />
          </mxGeometry>
        </mxCell>
        <mxCell id="WLDPPpvRlOWAVXOPyNu4-34" value="App_Time" style="shape=partialRectangle;html=1;whiteSpace=wrap;connectable=0;strokeColor=inherit;overflow=hidden;fillColor=none;top=0;left=0;bottom=0;right=0;pointerEvents=1;fontSize=16;" parent="WLDPPpvRlOWAVXOPyNu4-20" vertex="1">
          <mxGeometry x="320" width="90" height="40" as="geometry">
            <mxRectangle width="90" height="40" as="alternateBounds" />
          </mxGeometry>
        </mxCell>
        <mxCell id="WLDPPpvRlOWAVXOPyNu4-35" value="App_Status" style="shape=partialRectangle;html=1;whiteSpace=wrap;connectable=0;strokeColor=inherit;overflow=hidden;fillColor=none;top=0;left=0;bottom=0;right=0;pointerEvents=1;fontSize=16;" parent="WLDPPpvRlOWAVXOPyNu4-20" vertex="1">
          <mxGeometry x="410" width="90" height="40" as="geometry">
            <mxRectangle width="90" height="40" as="alternateBounds" />
          </mxGeometry>
        </mxCell>
        <mxCell id="WLDPPpvRlOWAVXOPyNu4-70" style="edgeStyle=orthogonalEdgeStyle;rounded=0;orthogonalLoop=1;jettySize=auto;html=1;endArrow=none;endFill=0;" parent="WLDPPpvRlOWAVXOPyNu4-19" source="WLDPPpvRlOWAVXOPyNu4-20" edge="1">
          <mxGeometry relative="1" as="geometry">
            <mxPoint x="112" as="targetPoint" />
            <Array as="points">
              <mxPoint x="-20" y="20" />
              <mxPoint x="-20" y="-20" />
              <mxPoint x="112" y="-20" />
            </Array>
          </mxGeometry>
        </mxCell>
        <mxCell id="WLDPPpvRlOWAVXOPyNu4-71" style="edgeStyle=orthogonalEdgeStyle;rounded=0;orthogonalLoop=1;jettySize=auto;html=1;endArrow=none;endFill=0;" parent="WLDPPpvRlOWAVXOPyNu4-19" source="WLDPPpvRlOWAVXOPyNu4-20" edge="1">
          <mxGeometry relative="1" as="geometry">
            <mxPoint x="188" as="targetPoint" />
            <Array as="points">
              <mxPoint x="-20" y="20" />
              <mxPoint x="-20" y="-20" />
              <mxPoint x="188" y="-20" />
            </Array>
          </mxGeometry>
        </mxCell>
        <mxCell id="WLDPPpvRlOWAVXOPyNu4-32" value="Appointment" style="text;html=1;align=center;verticalAlign=middle;whiteSpace=wrap;rounded=0;" parent="1" vertex="1">
          <mxGeometry x="190" y="160" width="60" height="30" as="geometry" />
        </mxCell>
        <mxCell id="WLDPPpvRlOWAVXOPyNu4-37" value="" style="shape=table;startSize=0;container=1;collapsible=0;childLayout=tableLayout;fontSize=16;" parent="1" vertex="1">
          <mxGeometry x="190" y="360" width="400" height="40" as="geometry" />
        </mxCell>
        <mxCell id="WLDPPpvRlOWAVXOPyNu4-38" value="" style="shape=tableRow;horizontal=0;startSize=0;swimlaneHead=0;swimlaneBody=0;strokeColor=inherit;top=0;left=0;bottom=0;right=0;collapsible=0;dropTarget=0;fillColor=none;points=[[0,0.5],[1,0.5]];portConstraint=eastwest;fontSize=16;" parent="WLDPPpvRlOWAVXOPyNu4-37" vertex="1">
          <mxGeometry width="400" height="40" as="geometry" />
        </mxCell>
        <mxCell id="WLDPPpvRlOWAVXOPyNu4-39" value="Doc_EmpID" style="shape=partialRectangle;html=1;whiteSpace=wrap;connectable=0;strokeColor=#82b366;overflow=hidden;fillColor=#d5e8d4;top=0;left=0;bottom=0;right=0;pointerEvents=1;fontSize=16;" parent="WLDPPpvRlOWAVXOPyNu4-38" vertex="1">
          <mxGeometry width="90" height="40" as="geometry">
            <mxRectangle width="90" height="40" as="alternateBounds" />
          </mxGeometry>
        </mxCell>
        <mxCell id="WLDPPpvRlOWAVXOPyNu4-40" value="Doc_Fname" style="shape=partialRectangle;html=1;whiteSpace=wrap;connectable=0;strokeColor=inherit;overflow=hidden;fillColor=none;top=0;left=0;bottom=0;right=0;pointerEvents=1;fontSize=16;" parent="WLDPPpvRlOWAVXOPyNu4-38" vertex="1">
          <mxGeometry x="90" width="90" height="40" as="geometry">
            <mxRectangle width="90" height="40" as="alternateBounds" />
          </mxGeometry>
        </mxCell>
        <mxCell id="WLDPPpvRlOWAVXOPyNu4-41" value="Doc_Lname" style="shape=partialRectangle;html=1;whiteSpace=wrap;connectable=0;strokeColor=inherit;overflow=hidden;fillColor=none;top=0;left=0;bottom=0;right=0;pointerEvents=1;fontSize=16;" parent="WLDPPpvRlOWAVXOPyNu4-38" vertex="1">
          <mxGeometry x="180" width="90" height="40" as="geometry">
            <mxRectangle width="90" height="40" as="alternateBounds" />
          </mxGeometry>
        </mxCell>
        <mxCell id="WLDPPpvRlOWAVXOPyNu4-50" value="Doc_CellPhone" style="shape=partialRectangle;html=1;whiteSpace=wrap;connectable=0;strokeColor=inherit;overflow=hidden;fillColor=none;top=0;left=0;bottom=0;right=0;pointerEvents=1;fontSize=16;" parent="WLDPPpvRlOWAVXOPyNu4-38" vertex="1">
          <mxGeometry x="270" width="130" height="40" as="geometry">
            <mxRectangle width="130" height="40" as="alternateBounds" />
          </mxGeometry>
        </mxCell>
        <mxCell id="WLDPPpvRlOWAVXOPyNu4-81" style="edgeStyle=orthogonalEdgeStyle;rounded=0;orthogonalLoop=1;jettySize=auto;html=1;entryX=0.31;entryY=0.985;entryDx=0;entryDy=0;entryPerimeter=0;" parent="WLDPPpvRlOWAVXOPyNu4-37" source="WLDPPpvRlOWAVXOPyNu4-38" target="WLDPPpvRlOWAVXOPyNu4-38" edge="1">
          <mxGeometry relative="1" as="geometry" />
        </mxCell>
        <mxCell id="WLDPPpvRlOWAVXOPyNu4-83" style="edgeStyle=orthogonalEdgeStyle;rounded=0;orthogonalLoop=1;jettySize=auto;html=1;entryX=0.756;entryY=0.985;entryDx=0;entryDy=0;entryPerimeter=0;" parent="WLDPPpvRlOWAVXOPyNu4-37" source="WLDPPpvRlOWAVXOPyNu4-38" target="WLDPPpvRlOWAVXOPyNu4-38" edge="1">
          <mxGeometry relative="1" as="geometry" />
        </mxCell>
        <mxCell id="WLDPPpvRlOWAVXOPyNu4-52" value="Doctor" style="text;html=1;align=center;verticalAlign=middle;whiteSpace=wrap;rounded=0;" parent="1" vertex="1">
          <mxGeometry x="190" y="400" width="60" height="30" as="geometry" />
        </mxCell>
        <mxCell id="WLDPPpvRlOWAVXOPyNu4-82" style="edgeStyle=orthogonalEdgeStyle;rounded=0;orthogonalLoop=1;jettySize=auto;html=1;entryX=0.566;entryY=1.045;entryDx=0;entryDy=0;entryPerimeter=0;" parent="1" source="WLDPPpvRlOWAVXOPyNu4-38" target="WLDPPpvRlOWAVXOPyNu4-38" edge="1">
          <mxGeometry relative="1" as="geometry">
            <Array as="points">
              <mxPoint x="170" y="380" />
              <mxPoint x="170" y="420" />
              <mxPoint x="410" y="420" />
              <mxPoint x="410" y="402" />
            </Array>
          </mxGeometry>
        </mxCell>
        <mxCell id="WLDPPpvRlOWAVXOPyNu4-86" value="" style="endArrow=classic;html=1;rounded=0;edgeStyle=orthogonalEdgeStyle;entryX=0.548;entryY=-0.065;entryDx=0;entryDy=0;entryPerimeter=0;" parent="1" target="WLDPPpvRlOWAVXOPyNu4-20" edge="1">
          <mxGeometry width="50" height="50" relative="1" as="geometry">
            <mxPoint x="290" y="110" as="sourcePoint" />
            <mxPoint x="460" y="80" as="targetPoint" />
            <Array as="points">
              <mxPoint x="290" y="80" />
              <mxPoint x="454" y="80" />
            </Array>
          </mxGeometry>
        </mxCell>
        <mxCell id="WLDPPpvRlOWAVXOPyNu4-87" value="" style="endArrow=classic;html=1;rounded=0;edgeStyle=orthogonalEdgeStyle;" parent="1" edge="1">
          <mxGeometry width="50" height="50" relative="1" as="geometry">
            <mxPoint x="450" y="80" as="sourcePoint" />
            <mxPoint x="540" y="120" as="targetPoint" />
          </mxGeometry>
        </mxCell>
        <mxCell id="WLDPPpvRlOWAVXOPyNu4-88" value="" style="endArrow=classic;html=1;rounded=0;edgeStyle=orthogonalEdgeStyle;" parent="1" edge="1">
          <mxGeometry width="50" height="50" relative="1" as="geometry">
            <mxPoint x="540" y="80" as="sourcePoint" />
            <mxPoint x="640" y="120" as="targetPoint" />
          </mxGeometry>
        </mxCell>
        <mxCell id="D1UHIyONXExDo8GBItgu-14" value="" style="shape=table;startSize=0;container=1;collapsible=0;childLayout=tableLayout;fontSize=16;swimlaneLine=1;" parent="1" vertex="1">
          <mxGeometry x="30" y="670" width="780" height="40" as="geometry" />
        </mxCell>
        <mxCell id="D1UHIyONXExDo8GBItgu-23" value="" style="shape=tableRow;horizontal=0;startSize=0;swimlaneHead=0;swimlaneBody=0;top=0;left=0;bottom=0;right=0;collapsible=0;dropTarget=0;points=[[0,0.5],[1,0.5]];portConstraint=eastwest;fontSize=16;" parent="D1UHIyONXExDo8GBItgu-14" vertex="1">
          <mxGeometry width="780" height="40" as="geometry" />
        </mxCell>
        <mxCell id="D1UHIyONXExDo8GBItgu-24" value="ITEM_ID" style="shape=partialRectangle;html=1;whiteSpace=wrap;connectable=0;strokeColor=#82b366;overflow=hidden;fillColor=#d5e8d4;top=0;left=0;bottom=0;right=0;pointerEvents=1;fontSize=16;" parent="D1UHIyONXExDo8GBItgu-23" vertex="1">
          <mxGeometry width="100" height="40" as="geometry">
            <mxRectangle width="100" height="40" as="alternateBounds" />
          </mxGeometry>
        </mxCell>
        <mxCell id="D1UHIyONXExDo8GBItgu-25" value="ITEM_LABEL" style="shape=partialRectangle;html=1;whiteSpace=wrap;connectable=0;strokeColor=inherit;overflow=hidden;fillColor=none;top=0;left=0;bottom=0;right=0;pointerEvents=1;fontSize=16;" parent="D1UHIyONXExDo8GBItgu-23" vertex="1">
          <mxGeometry x="100" width="120" height="40" as="geometry">
            <mxRectangle width="120" height="40" as="alternateBounds" />
          </mxGeometry>
        </mxCell>
        <mxCell id="D1UHIyONXExDo8GBItgu-26" value="ROOM_NUMBER" style="shape=partialRectangle;html=1;whiteSpace=wrap;connectable=0;strokeColor=inherit;overflow=hidden;fillColor=none;top=0;left=0;bottom=0;right=0;pointerEvents=1;fontSize=16;" parent="D1UHIyONXExDo8GBItgu-23" vertex="1">
          <mxGeometry x="220" width="160" height="40" as="geometry">
            <mxRectangle width="160" height="40" as="alternateBounds" />
          </mxGeometry>
        </mxCell>
        <mxCell id="D1UHIyONXExDo8GBItgu-27" value="BLDG_CODE" style="shape=partialRectangle;html=1;whiteSpace=wrap;connectable=0;strokeColor=#82b366;overflow=hidden;fillColor=#d5e8d4;top=0;left=0;bottom=0;right=0;pointerEvents=1;fontSize=16;" parent="D1UHIyONXExDo8GBItgu-23" vertex="1">
          <mxGeometry x="380" width="140" height="40" as="geometry">
            <mxRectangle width="140" height="40" as="alternateBounds" />
          </mxGeometry>
        </mxCell>
        <mxCell id="D1UHIyONXExDo8GBItgu-28" value="BLDG_NAME" style="shape=partialRectangle;html=1;whiteSpace=wrap;connectable=0;strokeColor=inherit;overflow=hidden;fillColor=none;top=0;left=0;bottom=0;right=0;pointerEvents=1;fontSize=16;" parent="D1UHIyONXExDo8GBItgu-23" vertex="1">
          <mxGeometry x="520" width="120" height="40" as="geometry">
            <mxRectangle width="120" height="40" as="alternateBounds" />
          </mxGeometry>
        </mxCell>
        <mxCell id="D1UHIyONXExDo8GBItgu-29" value="BLDG_MANAGER" style="shape=partialRectangle;html=1;whiteSpace=wrap;connectable=0;strokeColor=inherit;overflow=hidden;fillColor=none;top=0;left=0;bottom=0;right=0;pointerEvents=1;fontSize=16;" parent="D1UHIyONXExDo8GBItgu-23" vertex="1">
          <mxGeometry x="640" width="140" height="40" as="geometry">
            <mxRectangle width="140" height="40" as="alternateBounds" />
          </mxGeometry>
        </mxCell>
        <mxCell id="d2CoVcavQI583WoigCIx-1" value="" style="endArrow=classic;html=1;rounded=0;exitX=0.57;exitY=-0.045;exitDx=0;exitDy=0;exitPerimeter=0;edgeStyle=orthogonalEdgeStyle;entryX=0.759;entryY=-0.025;entryDx=0;entryDy=0;entryPerimeter=0;" edge="1" parent="D1UHIyONXExDo8GBItgu-14" source="D1UHIyONXExDo8GBItgu-23" target="D1UHIyONXExDo8GBItgu-23">
          <mxGeometry width="50" height="50" relative="1" as="geometry">
            <mxPoint x="370" y="-40" as="sourcePoint" />
            <mxPoint x="590" y="-60" as="targetPoint" />
            <Array as="points">
              <mxPoint x="450" y="-2" />
              <mxPoint x="450" y="-50" />
              <mxPoint x="592" y="-50" />
            </Array>
          </mxGeometry>
        </mxCell>
        <mxCell id="d2CoVcavQI583WoigCIx-3" value="" style="endArrow=classic;html=1;rounded=0;exitX=0.054;exitY=-0.045;exitDx=0;exitDy=0;exitPerimeter=0;edgeStyle=orthogonalEdgeStyle;entryX=0.197;entryY=-0.045;entryDx=0;entryDy=0;entryPerimeter=0;" edge="1" parent="D1UHIyONXExDo8GBItgu-14" source="D1UHIyONXExDo8GBItgu-14" target="D1UHIyONXExDo8GBItgu-23">
          <mxGeometry width="50" height="50" relative="1" as="geometry">
            <mxPoint x="370" y="-20" as="sourcePoint" />
            <mxPoint x="150" y="-50" as="targetPoint" />
            <Array as="points">
              <mxPoint x="42" y="-50" />
              <mxPoint x="154" y="-50" />
            </Array>
          </mxGeometry>
        </mxCell>
        <mxCell id="d2CoVcavQI583WoigCIx-6" value="" style="endArrow=classic;html=1;rounded=0;exitX=0.058;exitY=1.135;exitDx=0;exitDy=0;exitPerimeter=0;edgeStyle=orthogonalEdgeStyle;entryX=0.755;entryY=0.975;entryDx=0;entryDy=0;entryPerimeter=0;" edge="1" parent="D1UHIyONXExDo8GBItgu-14" source="D1UHIyONXExDo8GBItgu-14" target="D1UHIyONXExDo8GBItgu-23">
          <mxGeometry width="50" height="50" relative="1" as="geometry">
            <mxPoint x="365" y="200" as="sourcePoint" />
            <mxPoint x="590" y="120" as="targetPoint" />
            <Array as="points">
              <mxPoint x="45" y="80" />
              <mxPoint x="591" y="80" />
              <mxPoint x="591" y="39" />
            </Array>
          </mxGeometry>
        </mxCell>
        <mxCell id="d2CoVcavQI583WoigCIx-2" value="" style="endArrow=classic;html=1;rounded=0;edgeStyle=orthogonalEdgeStyle;entryX=0.899;entryY=-0.085;entryDx=0;entryDy=0;entryPerimeter=0;" edge="1" parent="1" target="D1UHIyONXExDo8GBItgu-23">
          <mxGeometry width="50" height="50" relative="1" as="geometry">
            <mxPoint x="620" y="620" as="sourcePoint" />
            <mxPoint x="730" y="620" as="targetPoint" />
            <Array as="points">
              <mxPoint x="730" y="620" />
              <mxPoint x="730" y="667" />
            </Array>
          </mxGeometry>
        </mxCell>
        <mxCell id="d2CoVcavQI583WoigCIx-4" value="" style="endArrow=classic;html=1;rounded=0;edgeStyle=orthogonalEdgeStyle;" edge="1" parent="1">
          <mxGeometry width="50" height="50" relative="1" as="geometry">
            <mxPoint x="180" y="620" as="sourcePoint" />
            <mxPoint x="330" y="660" as="targetPoint" />
          </mxGeometry>
        </mxCell>
        <mxCell id="d2CoVcavQI583WoigCIx-5" value="" style="endArrow=classic;html=1;rounded=0;edgeStyle=orthogonalEdgeStyle;" edge="1" parent="1">
          <mxGeometry width="50" height="50" relative="1" as="geometry">
            <mxPoint x="480" y="620" as="sourcePoint" />
            <mxPoint x="360" y="660" as="targetPoint" />
          </mxGeometry>
        </mxCell>
        <mxCell id="d2CoVcavQI583WoigCIx-7" value="" style="endArrow=classic;html=1;rounded=0;edgeStyle=orthogonalEdgeStyle;entryX=0.918;entryY=0.975;entryDx=0;entryDy=0;entryPerimeter=0;" edge="1" parent="1" target="D1UHIyONXExDo8GBItgu-23">
          <mxGeometry width="50" height="50" relative="1" as="geometry">
            <mxPoint x="620" y="750" as="sourcePoint" />
            <mxPoint x="750" y="750" as="targetPoint" />
          </mxGeometry>
        </mxCell>
        <mxCell id="d2CoVcavQI583WoigCIx-8" value="partial dependency" style="text;html=1;align=center;verticalAlign=middle;whiteSpace=wrap;rounded=0;" vertex="1" parent="1">
          <mxGeometry x="380" y="750" width="60" height="30" as="geometry" />
        </mxCell>
        <mxCell id="d2CoVcavQI583WoigCIx-9" value="" style="endArrow=classic;html=1;rounded=0;exitX=0.576;exitY=0.975;exitDx=0;exitDy=0;exitPerimeter=0;edgeStyle=orthogonalEdgeStyle;entryX=0.351;entryY=0.995;entryDx=0;entryDy=0;entryPerimeter=0;" edge="1" parent="1" target="D1UHIyONXExDo8GBItgu-23">
          <mxGeometry width="50" height="50" relative="1" as="geometry">
            <mxPoint x="479.64" y="620" as="sourcePoint" />
            <mxPoint x="300.36" y="731" as="targetPoint" />
            <Array as="points">
              <mxPoint x="480" y="801" />
              <mxPoint x="301" y="801" />
              <mxPoint x="301" y="710" />
            </Array>
          </mxGeometry>
        </mxCell>
        <mxCell id="d2CoVcavQI583WoigCIx-10" value="partial dependency" style="text;html=1;align=center;verticalAlign=middle;whiteSpace=wrap;rounded=0;" vertex="1" parent="1">
          <mxGeometry x="360" y="810" width="60" height="30" as="geometry" />
        </mxCell>
        <mxCell id="d2CoVcavQI583WoigCIx-11" value="" style="endArrow=classic;html=1;rounded=0;edgeStyle=orthogonalEdgeStyle;entryX=0.199;entryY=0.975;entryDx=0;entryDy=0;entryPerimeter=0;" edge="1" parent="1" target="D1UHIyONXExDo8GBItgu-23">
          <mxGeometry width="50" height="50" relative="1" as="geometry">
            <mxPoint x="300" y="800" as="sourcePoint" />
            <mxPoint x="180" y="800" as="targetPoint" />
            <Array as="points">
              <mxPoint x="185" y="800" />
            </Array>
          </mxGeometry>
        </mxCell>
        <mxCell id="d2CoVcavQI583WoigCIx-12" value="" style="shape=table;startSize=0;container=1;collapsible=0;childLayout=tableLayout;fontSize=16;" vertex="1" parent="1">
          <mxGeometry x="180" y="930" width="430" height="40" as="geometry" />
        </mxCell>
        <mxCell id="d2CoVcavQI583WoigCIx-29" style="shape=tableRow;horizontal=0;startSize=0;swimlaneHead=0;swimlaneBody=0;strokeColor=inherit;top=0;left=0;bottom=0;right=0;collapsible=0;dropTarget=0;fillColor=none;points=[[0,0.5],[1,0.5]];portConstraint=eastwest;fontSize=16;" vertex="1" parent="d2CoVcavQI583WoigCIx-12">
          <mxGeometry width="430" height="40" as="geometry" />
        </mxCell>
        <mxCell id="d2CoVcavQI583WoigCIx-30" value="ITEM_ID" style="shape=partialRectangle;html=1;whiteSpace=wrap;connectable=0;strokeColor=#82b366;overflow=hidden;fillColor=#d5e8d4;top=0;left=0;bottom=0;right=0;pointerEvents=1;fontSize=16;" vertex="1" parent="d2CoVcavQI583WoigCIx-29">
          <mxGeometry width="70" height="40" as="geometry">
            <mxRectangle width="70" height="40" as="alternateBounds" />
          </mxGeometry>
        </mxCell>
        <mxCell id="d2CoVcavQI583WoigCIx-32" value="BLDG_CODE" style="shape=partialRectangle;html=1;whiteSpace=wrap;connectable=0;strokeColor=#82b366;overflow=hidden;fillColor=#d5e8d4;top=0;left=0;bottom=0;right=0;pointerEvents=1;fontSize=16;" vertex="1" parent="d2CoVcavQI583WoigCIx-29">
          <mxGeometry x="70" width="120" height="40" as="geometry">
            <mxRectangle width="120" height="40" as="alternateBounds" />
          </mxGeometry>
        </mxCell>
        <mxCell id="d2CoVcavQI583WoigCIx-33" value="ITEM_LABEL" style="shape=partialRectangle;html=1;whiteSpace=wrap;connectable=0;strokeColor=inherit;overflow=hidden;fillColor=none;top=0;left=0;bottom=0;right=0;pointerEvents=1;fontSize=16;" vertex="1" parent="d2CoVcavQI583WoigCIx-29">
          <mxGeometry x="190" width="100" height="40" as="geometry">
            <mxRectangle width="100" height="40" as="alternateBounds" />
          </mxGeometry>
        </mxCell>
        <mxCell id="d2CoVcavQI583WoigCIx-34" value="ROOM_NUMBER" style="shape=partialRectangle;html=1;whiteSpace=wrap;connectable=0;strokeColor=inherit;overflow=hidden;fillColor=none;top=0;left=0;bottom=0;right=0;pointerEvents=1;fontSize=16;" vertex="1" parent="d2CoVcavQI583WoigCIx-29">
          <mxGeometry x="290" width="140" height="40" as="geometry">
            <mxRectangle width="140" height="40" as="alternateBounds" />
          </mxGeometry>
        </mxCell>
        <mxCell id="d2CoVcavQI583WoigCIx-36" value="" style="shape=table;startSize=0;container=1;collapsible=0;childLayout=tableLayout;fontSize=16;" vertex="1" parent="1">
          <mxGeometry x="190" y="1130" width="370" height="40" as="geometry" />
        </mxCell>
        <mxCell id="d2CoVcavQI583WoigCIx-37" value="" style="shape=tableRow;horizontal=0;startSize=0;swimlaneHead=0;swimlaneBody=0;strokeColor=inherit;top=0;left=0;bottom=0;right=0;collapsible=0;dropTarget=0;fillColor=none;points=[[0,0.5],[1,0.5]];portConstraint=eastwest;fontSize=16;" vertex="1" parent="d2CoVcavQI583WoigCIx-36">
          <mxGeometry width="370" height="40" as="geometry" />
        </mxCell>
        <mxCell id="d2CoVcavQI583WoigCIx-38" value="BLDG__CODE" style="shape=partialRectangle;html=1;whiteSpace=wrap;connectable=0;strokeColor=#82b366;overflow=hidden;fillColor=#d5e8d4;top=0;left=0;bottom=0;right=0;pointerEvents=1;fontSize=16;" vertex="1" parent="d2CoVcavQI583WoigCIx-37">
          <mxGeometry width="110" height="40" as="geometry">
            <mxRectangle width="110" height="40" as="alternateBounds" />
          </mxGeometry>
        </mxCell>
        <mxCell id="d2CoVcavQI583WoigCIx-39" value="BLDG_NAME" style="shape=partialRectangle;html=1;whiteSpace=wrap;connectable=0;strokeColor=inherit;overflow=hidden;fillColor=none;top=0;left=0;bottom=0;right=0;pointerEvents=1;fontSize=16;" vertex="1" parent="d2CoVcavQI583WoigCIx-37">
          <mxGeometry x="110" width="110" height="40" as="geometry">
            <mxRectangle width="110" height="40" as="alternateBounds" />
          </mxGeometry>
        </mxCell>
        <mxCell id="d2CoVcavQI583WoigCIx-51" value="BLDG_MANAGER" style="shape=partialRectangle;html=1;whiteSpace=wrap;connectable=0;strokeColor=inherit;overflow=hidden;fillColor=none;top=0;left=0;bottom=0;right=0;pointerEvents=1;fontSize=16;" vertex="1" parent="d2CoVcavQI583WoigCIx-37">
          <mxGeometry x="220" width="150" height="40" as="geometry">
            <mxRectangle width="150" height="40" as="alternateBounds" />
          </mxGeometry>
        </mxCell>
        <mxCell id="d2CoVcavQI583WoigCIx-52" value="" style="endArrow=classic;html=1;rounded=0;exitX=0.154;exitY=-0.025;exitDx=0;exitDy=0;exitPerimeter=0;edgeStyle=orthogonalEdgeStyle;entryX=0.433;entryY=-0.085;entryDx=0;entryDy=0;entryPerimeter=0;" edge="1" parent="d2CoVcavQI583WoigCIx-36" source="d2CoVcavQI583WoigCIx-37" target="d2CoVcavQI583WoigCIx-37">
          <mxGeometry width="50" height="50" relative="1" as="geometry">
            <mxPoint x="10" y="-20" as="sourcePoint" />
            <mxPoint x="160" y="-80" as="targetPoint" />
            <Array as="points">
              <mxPoint x="57" y="-50" />
              <mxPoint x="160" y="-50" />
            </Array>
          </mxGeometry>
        </mxCell>
        <mxCell id="d2CoVcavQI583WoigCIx-53" value="" style="endArrow=classic;html=1;rounded=0;edgeStyle=orthogonalEdgeStyle;entryX=0.805;entryY=-0.005;entryDx=0;entryDy=0;entryPerimeter=0;" edge="1" parent="1" target="d2CoVcavQI583WoigCIx-37">
          <mxGeometry width="50" height="50" relative="1" as="geometry">
            <mxPoint x="350" y="1080" as="sourcePoint" />
            <mxPoint x="490" y="1080" as="targetPoint" />
            <Array as="points">
              <mxPoint x="480" y="1080" />
              <mxPoint x="480" y="1130" />
            </Array>
          </mxGeometry>
        </mxCell>
        <mxCell id="d2CoVcavQI583WoigCIx-55" value="" style="endArrow=none;html=1;rounded=0;exitX=0.096;exitY=-0.045;exitDx=0;exitDy=0;exitPerimeter=0;edgeStyle=orthogonalEdgeStyle;" edge="1" parent="1" source="d2CoVcavQI583WoigCIx-29">
          <mxGeometry width="50" height="50" relative="1" as="geometry">
            <mxPoint x="200" y="1010" as="sourcePoint" />
            <mxPoint x="221" y="890" as="targetPoint" />
            <Array as="points">
              <mxPoint x="221" y="920" />
              <mxPoint x="221" y="920" />
            </Array>
          </mxGeometry>
        </mxCell>
        <mxCell id="d2CoVcavQI583WoigCIx-56" value="" style="endArrow=none;html=1;rounded=0;edgeStyle=orthogonalEdgeStyle;" edge="1" parent="1">
          <mxGeometry width="50" height="50" relative="1" as="geometry">
            <mxPoint x="220" y="890" as="sourcePoint" />
            <mxPoint x="310" y="920" as="targetPoint" />
          </mxGeometry>
        </mxCell>
        <mxCell id="d2CoVcavQI583WoigCIx-57" value="" style="edgeStyle=elbowEdgeStyle;elbow=vertical;endArrow=classic;html=1;curved=0;rounded=0;endSize=8;startSize=8;entryX=0.599;entryY=-0.045;entryDx=0;entryDy=0;entryPerimeter=0;" edge="1" parent="1" target="d2CoVcavQI583WoigCIx-29">
          <mxGeometry width="50" height="50" relative="1" as="geometry">
            <mxPoint x="270" y="890" as="sourcePoint" />
            <mxPoint x="440" y="870" as="targetPoint" />
            <Array as="points">
              <mxPoint x="360" y="870" />
            </Array>
          </mxGeometry>
        </mxCell>
        <mxCell id="d2CoVcavQI583WoigCIx-58" value="" style="edgeStyle=segmentEdgeStyle;endArrow=classic;html=1;curved=0;rounded=0;endSize=8;startSize=8;entryX=0.822;entryY=-0.105;entryDx=0;entryDy=0;entryPerimeter=0;" edge="1" parent="1" target="d2CoVcavQI583WoigCIx-29">
          <mxGeometry width="50" height="50" relative="1" as="geometry">
            <mxPoint x="440" y="880" as="sourcePoint" />
            <mxPoint x="530" y="820" as="targetPoint" />
          </mxGeometry>
        </mxCell>
        <mxCell id="d2CoVcavQI583WoigCIx-59" value="ITEM" style="shape=table;startSize=30;container=1;collapsible=0;childLayout=tableLayout;fixedRows=1;rowLines=0;fontStyle=0;strokeColor=default;fontSize=16;" vertex="1" parent="1">
          <mxGeometry x="260" y="1390" width="180" height="150" as="geometry" />
        </mxCell>
        <mxCell id="d2CoVcavQI583WoigCIx-60" value="" style="shape=tableRow;horizontal=0;startSize=0;swimlaneHead=0;swimlaneBody=0;top=0;left=0;bottom=0;right=0;collapsible=0;dropTarget=0;fillColor=none;points=[[0,0.5],[1,0.5]];portConstraint=eastwest;strokeColor=inherit;fontSize=16;" vertex="1" parent="d2CoVcavQI583WoigCIx-59">
          <mxGeometry y="30" width="180" height="30" as="geometry" />
        </mxCell>
        <mxCell id="d2CoVcavQI583WoigCIx-61" value="PK" style="shape=partialRectangle;html=1;whiteSpace=wrap;connectable=0;fillColor=none;top=0;left=0;bottom=0;right=0;overflow=hidden;pointerEvents=1;strokeColor=inherit;fontSize=16;" vertex="1" parent="d2CoVcavQI583WoigCIx-60">
          <mxGeometry width="40" height="30" as="geometry">
            <mxRectangle width="40" height="30" as="alternateBounds" />
          </mxGeometry>
        </mxCell>
        <mxCell id="d2CoVcavQI583WoigCIx-62" value="ITEM_ID" style="shape=partialRectangle;html=1;whiteSpace=wrap;connectable=0;fillColor=none;top=0;left=0;bottom=0;right=0;align=left;spacingLeft=6;overflow=hidden;strokeColor=inherit;fontSize=16;" vertex="1" parent="d2CoVcavQI583WoigCIx-60">
          <mxGeometry x="40" width="140" height="30" as="geometry">
            <mxRectangle width="140" height="30" as="alternateBounds" />
          </mxGeometry>
        </mxCell>
        <mxCell id="d2CoVcavQI583WoigCIx-63" value="" style="shape=tableRow;horizontal=0;startSize=0;swimlaneHead=0;swimlaneBody=0;top=0;left=0;bottom=0;right=0;collapsible=0;dropTarget=0;fillColor=none;points=[[0,0.5],[1,0.5]];portConstraint=eastwest;strokeColor=inherit;fontSize=16;" vertex="1" parent="d2CoVcavQI583WoigCIx-59">
          <mxGeometry y="60" width="180" height="30" as="geometry" />
        </mxCell>
        <mxCell id="d2CoVcavQI583WoigCIx-64" value="PK" style="shape=partialRectangle;html=1;whiteSpace=wrap;connectable=0;fillColor=none;top=0;left=0;bottom=0;right=0;overflow=hidden;strokeColor=inherit;fontSize=16;" vertex="1" parent="d2CoVcavQI583WoigCIx-63">
          <mxGeometry width="40" height="30" as="geometry">
            <mxRectangle width="40" height="30" as="alternateBounds" />
          </mxGeometry>
        </mxCell>
        <mxCell id="d2CoVcavQI583WoigCIx-65" value="BLDG_CODE" style="shape=partialRectangle;html=1;whiteSpace=wrap;connectable=0;fillColor=none;top=0;left=0;bottom=0;right=0;align=left;spacingLeft=6;overflow=hidden;strokeColor=inherit;fontSize=16;" vertex="1" parent="d2CoVcavQI583WoigCIx-63">
          <mxGeometry x="40" width="140" height="30" as="geometry">
            <mxRectangle width="140" height="30" as="alternateBounds" />
          </mxGeometry>
        </mxCell>
        <mxCell id="d2CoVcavQI583WoigCIx-66" value="" style="shape=tableRow;horizontal=0;startSize=0;swimlaneHead=0;swimlaneBody=0;top=0;left=0;bottom=0;right=0;collapsible=0;dropTarget=0;fillColor=none;points=[[0,0.5],[1,0.5]];portConstraint=eastwest;strokeColor=inherit;fontSize=16;" vertex="1" parent="d2CoVcavQI583WoigCIx-59">
          <mxGeometry y="90" width="180" height="30" as="geometry" />
        </mxCell>
        <mxCell id="d2CoVcavQI583WoigCIx-67" value="" style="shape=partialRectangle;html=1;whiteSpace=wrap;connectable=0;fillColor=none;top=0;left=0;bottom=0;right=0;overflow=hidden;strokeColor=inherit;fontSize=16;" vertex="1" parent="d2CoVcavQI583WoigCIx-66">
          <mxGeometry width="40" height="30" as="geometry">
            <mxRectangle width="40" height="30" as="alternateBounds" />
          </mxGeometry>
        </mxCell>
        <mxCell id="d2CoVcavQI583WoigCIx-68" value="ITEM_LABEL" style="shape=partialRectangle;html=1;whiteSpace=wrap;connectable=0;fillColor=none;top=0;left=0;bottom=0;right=0;align=left;spacingLeft=6;overflow=hidden;strokeColor=inherit;fontSize=16;" vertex="1" parent="d2CoVcavQI583WoigCIx-66">
          <mxGeometry x="40" width="140" height="30" as="geometry">
            <mxRectangle width="140" height="30" as="alternateBounds" />
          </mxGeometry>
        </mxCell>
        <mxCell id="d2CoVcavQI583WoigCIx-69" style="shape=tableRow;horizontal=0;startSize=0;swimlaneHead=0;swimlaneBody=0;top=0;left=0;bottom=0;right=0;collapsible=0;dropTarget=0;fillColor=none;points=[[0,0.5],[1,0.5]];portConstraint=eastwest;strokeColor=inherit;fontSize=16;" vertex="1" parent="d2CoVcavQI583WoigCIx-59">
          <mxGeometry y="120" width="180" height="30" as="geometry" />
        </mxCell>
        <mxCell id="d2CoVcavQI583WoigCIx-70" style="shape=partialRectangle;html=1;whiteSpace=wrap;connectable=0;fillColor=none;top=0;left=0;bottom=0;right=0;overflow=hidden;strokeColor=inherit;fontSize=16;" vertex="1" parent="d2CoVcavQI583WoigCIx-69">
          <mxGeometry width="40" height="30" as="geometry">
            <mxRectangle width="40" height="30" as="alternateBounds" />
          </mxGeometry>
        </mxCell>
        <mxCell id="d2CoVcavQI583WoigCIx-71" value="ROOM_LABEL" style="shape=partialRectangle;html=1;whiteSpace=wrap;connectable=0;fillColor=none;top=0;left=0;bottom=0;right=0;align=left;spacingLeft=6;overflow=hidden;strokeColor=inherit;fontSize=16;" vertex="1" parent="d2CoVcavQI583WoigCIx-69">
          <mxGeometry x="40" width="140" height="30" as="geometry">
            <mxRectangle width="140" height="30" as="alternateBounds" />
          </mxGeometry>
        </mxCell>
        <mxCell id="d2CoVcavQI583WoigCIx-72" value="BUILDING" style="shape=table;startSize=30;container=1;collapsible=0;childLayout=tableLayout;fixedRows=1;rowLines=0;fontStyle=0;strokeColor=default;fontSize=16;" vertex="1" parent="1">
          <mxGeometry x="560" y="1390" width="180" height="120" as="geometry" />
        </mxCell>
        <mxCell id="d2CoVcavQI583WoigCIx-73" value="" style="shape=tableRow;horizontal=0;startSize=0;swimlaneHead=0;swimlaneBody=0;top=0;left=0;bottom=0;right=0;collapsible=0;dropTarget=0;fillColor=none;points=[[0,0.5],[1,0.5]];portConstraint=eastwest;strokeColor=inherit;fontSize=16;" vertex="1" parent="d2CoVcavQI583WoigCIx-72">
          <mxGeometry y="30" width="180" height="30" as="geometry" />
        </mxCell>
        <mxCell id="d2CoVcavQI583WoigCIx-74" value="PK" style="shape=partialRectangle;html=1;whiteSpace=wrap;connectable=0;fillColor=none;top=0;left=0;bottom=0;right=0;overflow=hidden;pointerEvents=1;strokeColor=inherit;fontSize=16;" vertex="1" parent="d2CoVcavQI583WoigCIx-73">
          <mxGeometry width="40" height="30" as="geometry">
            <mxRectangle width="40" height="30" as="alternateBounds" />
          </mxGeometry>
        </mxCell>
        <mxCell id="d2CoVcavQI583WoigCIx-75" value="BLDG_CODE" style="shape=partialRectangle;html=1;whiteSpace=wrap;connectable=0;fillColor=none;top=0;left=0;bottom=0;right=0;align=left;spacingLeft=6;overflow=hidden;strokeColor=inherit;fontSize=16;" vertex="1" parent="d2CoVcavQI583WoigCIx-73">
          <mxGeometry x="40" width="140" height="30" as="geometry">
            <mxRectangle width="140" height="30" as="alternateBounds" />
          </mxGeometry>
        </mxCell>
        <mxCell id="d2CoVcavQI583WoigCIx-76" value="" style="shape=tableRow;horizontal=0;startSize=0;swimlaneHead=0;swimlaneBody=0;top=0;left=0;bottom=0;right=0;collapsible=0;dropTarget=0;fillColor=none;points=[[0,0.5],[1,0.5]];portConstraint=eastwest;strokeColor=inherit;fontSize=16;" vertex="1" parent="d2CoVcavQI583WoigCIx-72">
          <mxGeometry y="60" width="180" height="30" as="geometry" />
        </mxCell>
        <mxCell id="d2CoVcavQI583WoigCIx-77" value="" style="shape=partialRectangle;html=1;whiteSpace=wrap;connectable=0;fillColor=none;top=0;left=0;bottom=0;right=0;overflow=hidden;strokeColor=inherit;fontSize=16;" vertex="1" parent="d2CoVcavQI583WoigCIx-76">
          <mxGeometry width="40" height="30" as="geometry">
            <mxRectangle width="40" height="30" as="alternateBounds" />
          </mxGeometry>
        </mxCell>
        <mxCell id="d2CoVcavQI583WoigCIx-78" value="BLDG_NAME" style="shape=partialRectangle;html=1;whiteSpace=wrap;connectable=0;fillColor=none;top=0;left=0;bottom=0;right=0;align=left;spacingLeft=6;overflow=hidden;strokeColor=inherit;fontSize=16;" vertex="1" parent="d2CoVcavQI583WoigCIx-76">
          <mxGeometry x="40" width="140" height="30" as="geometry">
            <mxRectangle width="140" height="30" as="alternateBounds" />
          </mxGeometry>
        </mxCell>
        <mxCell id="d2CoVcavQI583WoigCIx-79" value="" style="shape=tableRow;horizontal=0;startSize=0;swimlaneHead=0;swimlaneBody=0;top=0;left=0;bottom=0;right=0;collapsible=0;dropTarget=0;fillColor=none;points=[[0,0.5],[1,0.5]];portConstraint=eastwest;strokeColor=inherit;fontSize=16;" vertex="1" parent="d2CoVcavQI583WoigCIx-72">
          <mxGeometry y="90" width="180" height="30" as="geometry" />
        </mxCell>
        <mxCell id="d2CoVcavQI583WoigCIx-80" value="" style="shape=partialRectangle;html=1;whiteSpace=wrap;connectable=0;fillColor=none;top=0;left=0;bottom=0;right=0;overflow=hidden;strokeColor=inherit;fontSize=16;" vertex="1" parent="d2CoVcavQI583WoigCIx-79">
          <mxGeometry width="40" height="30" as="geometry">
            <mxRectangle width="40" height="30" as="alternateBounds" />
          </mxGeometry>
        </mxCell>
        <mxCell id="d2CoVcavQI583WoigCIx-81" value="BLDG_MANAGER" style="shape=partialRectangle;html=1;whiteSpace=wrap;connectable=0;fillColor=none;top=0;left=0;bottom=0;right=0;align=left;spacingLeft=6;overflow=hidden;strokeColor=inherit;fontSize=16;" vertex="1" parent="d2CoVcavQI583WoigCIx-79">
          <mxGeometry x="40" width="140" height="30" as="geometry">
            <mxRectangle width="140" height="30" as="alternateBounds" />
          </mxGeometry>
        </mxCell>
        <mxCell id="d2CoVcavQI583WoigCIx-82" style="edgeStyle=orthogonalEdgeStyle;rounded=0;orthogonalLoop=1;jettySize=auto;html=1;entryX=0.017;entryY=0.78;entryDx=0;entryDy=0;entryPerimeter=0;startArrow=ERoneToMany;startFill=0;endArrow=ERmandOne;endFill=0;" edge="1" parent="1" source="d2CoVcavQI583WoigCIx-60" target="d2CoVcavQI583WoigCIx-73">
          <mxGeometry relative="1" as="geometry" />
        </mxCell>
        <mxCell id="d2CoVcavQI583WoigCIx-83" value="" style="shape=table;startSize=0;container=1;collapsible=0;childLayout=tableLayout;fontSize=16;" vertex="1" parent="1">
          <mxGeometry x="10" y="1720" width="2520" height="40" as="geometry" />
        </mxCell>
        <mxCell id="d2CoVcavQI583WoigCIx-84" value="" style="shape=tableRow;horizontal=0;startSize=0;swimlaneHead=0;swimlaneBody=0;strokeColor=inherit;top=0;left=0;bottom=0;right=0;collapsible=0;dropTarget=0;fillColor=none;points=[[0,0.5],[1,0.5]];portConstraint=eastwest;fontSize=16;" vertex="1" parent="d2CoVcavQI583WoigCIx-83">
          <mxGeometry width="2520" height="40" as="geometry" />
        </mxCell>
        <mxCell id="d2CoVcavQI583WoigCIx-85" value="MEMBER_NUMBER" style="shape=partialRectangle;html=1;whiteSpace=wrap;connectable=0;strokeColor=#82b366;overflow=hidden;fillColor=#d5e8d4;top=0;left=0;bottom=0;right=0;pointerEvents=1;fontSize=16;" vertex="1" parent="d2CoVcavQI583WoigCIx-84">
          <mxGeometry width="170" height="40" as="geometry">
            <mxRectangle width="170" height="40" as="alternateBounds" />
          </mxGeometry>
        </mxCell>
        <mxCell id="d2CoVcavQI583WoigCIx-86" value="DINNER_CODE" style="shape=partialRectangle;html=1;whiteSpace=wrap;connectable=0;strokeColor=#82b366;overflow=hidden;fillColor=#d5e8d4;top=0;left=0;bottom=0;right=0;pointerEvents=1;fontSize=16;" vertex="1" parent="d2CoVcavQI583WoigCIx-84">
          <mxGeometry x="170" width="150" height="40" as="geometry">
            <mxRectangle width="150" height="40" as="alternateBounds" />
          </mxGeometry>
        </mxCell>
        <mxCell id="d2CoVcavQI583WoigCIx-87" value="ENTREE_CODE" style="shape=partialRectangle;html=1;whiteSpace=wrap;connectable=0;strokeColor=#82b366;overflow=hidden;fillColor=#d5e8d4;top=0;left=0;bottom=0;right=0;pointerEvents=1;fontSize=16;" vertex="1" parent="d2CoVcavQI583WoigCIx-84">
          <mxGeometry x="320" width="150" height="40" as="geometry">
            <mxRectangle width="150" height="40" as="alternateBounds" />
          </mxGeometry>
        </mxCell>
        <mxCell id="d2CoVcavQI583WoigCIx-96" value="DESSERT_NUM" style="shape=partialRectangle;html=1;whiteSpace=wrap;connectable=0;strokeColor=#82b366;overflow=hidden;fillColor=#d5e8d4;top=0;left=0;bottom=0;right=0;pointerEvents=1;fontSize=16;" vertex="1" parent="d2CoVcavQI583WoigCIx-84">
          <mxGeometry x="470" width="170" height="40" as="geometry">
            <mxRectangle width="170" height="40" as="alternateBounds" />
          </mxGeometry>
        </mxCell>
        <mxCell id="d2CoVcavQI583WoigCIx-103" value="MEMBER_NAME" style="shape=partialRectangle;html=1;whiteSpace=wrap;connectable=0;strokeColor=inherit;overflow=hidden;fillColor=none;top=0;left=0;bottom=0;right=0;pointerEvents=1;fontSize=16;" vertex="1" parent="d2CoVcavQI583WoigCIx-84">
          <mxGeometry x="640" width="160" height="40" as="geometry">
            <mxRectangle width="160" height="40" as="alternateBounds" />
          </mxGeometry>
        </mxCell>
        <mxCell id="d2CoVcavQI583WoigCIx-97" value="MEMBER_ADDRESS" style="shape=partialRectangle;html=1;whiteSpace=wrap;connectable=0;strokeColor=inherit;overflow=hidden;fillColor=none;top=0;left=0;bottom=0;right=0;pointerEvents=1;fontSize=16;" vertex="1" parent="d2CoVcavQI583WoigCIx-84">
          <mxGeometry x="800" width="180" height="40" as="geometry">
            <mxRectangle width="180" height="40" as="alternateBounds" />
          </mxGeometry>
        </mxCell>
        <mxCell id="d2CoVcavQI583WoigCIx-104" value="MEMBER_CITY" style="shape=partialRectangle;html=1;whiteSpace=wrap;connectable=0;strokeColor=inherit;overflow=hidden;fillColor=none;top=0;left=0;bottom=0;right=0;pointerEvents=1;fontSize=16;" vertex="1" parent="d2CoVcavQI583WoigCIx-84">
          <mxGeometry x="980" width="150" height="40" as="geometry">
            <mxRectangle width="150" height="40" as="alternateBounds" />
          </mxGeometry>
        </mxCell>
        <mxCell id="d2CoVcavQI583WoigCIx-105" value="MEMBER_ZIPCODE" style="shape=partialRectangle;html=1;whiteSpace=wrap;connectable=0;strokeColor=inherit;overflow=hidden;fillColor=none;top=0;left=0;bottom=0;right=0;pointerEvents=1;fontSize=16;" vertex="1" parent="d2CoVcavQI583WoigCIx-84">
          <mxGeometry x="1130" width="160" height="40" as="geometry">
            <mxRectangle width="160" height="40" as="alternateBounds" />
          </mxGeometry>
        </mxCell>
        <mxCell id="d2CoVcavQI583WoigCIx-108" value="INVITE_NUM" style="shape=partialRectangle;html=1;whiteSpace=wrap;connectable=0;strokeColor=inherit;overflow=hidden;fillColor=none;top=0;left=0;bottom=0;right=0;pointerEvents=1;fontSize=16;" vertex="1" parent="d2CoVcavQI583WoigCIx-84">
          <mxGeometry x="1290" width="110" height="40" as="geometry">
            <mxRectangle width="110" height="40" as="alternateBounds" />
          </mxGeometry>
        </mxCell>
        <mxCell id="d2CoVcavQI583WoigCIx-107" value="INVITE_DATE" style="shape=partialRectangle;html=1;whiteSpace=wrap;connectable=0;strokeColor=inherit;overflow=hidden;fillColor=none;top=0;left=0;bottom=0;right=0;pointerEvents=1;fontSize=16;" vertex="1" parent="d2CoVcavQI583WoigCIx-84">
          <mxGeometry x="1400" width="130" height="40" as="geometry">
            <mxRectangle width="130" height="40" as="alternateBounds" />
          </mxGeometry>
        </mxCell>
        <mxCell id="d2CoVcavQI583WoigCIx-106" value="ACCEPT_DATE" style="shape=partialRectangle;html=1;whiteSpace=wrap;connectable=0;strokeColor=inherit;overflow=hidden;fillColor=none;top=0;left=0;bottom=0;right=0;pointerEvents=1;fontSize=16;" vertex="1" parent="d2CoVcavQI583WoigCIx-84">
          <mxGeometry x="1530" width="120" height="40" as="geometry">
            <mxRectangle width="120" height="40" as="alternateBounds" />
          </mxGeometry>
        </mxCell>
        <mxCell id="d2CoVcavQI583WoigCIx-109" value="DINNER_DATE" style="shape=partialRectangle;html=1;whiteSpace=wrap;connectable=0;strokeColor=inherit;overflow=hidden;fillColor=none;top=0;left=0;bottom=0;right=0;pointerEvents=1;fontSize=16;" vertex="1" parent="d2CoVcavQI583WoigCIx-84">
          <mxGeometry x="1650" width="120" height="40" as="geometry">
            <mxRectangle width="120" height="40" as="alternateBounds" />
          </mxGeometry>
        </mxCell>
        <mxCell id="d2CoVcavQI583WoigCIx-110" value="DINNER_ATTENDED" style="shape=partialRectangle;html=1;whiteSpace=wrap;connectable=0;strokeColor=inherit;overflow=hidden;fillColor=none;top=0;left=0;bottom=0;right=0;pointerEvents=1;fontSize=16;" vertex="1" parent="d2CoVcavQI583WoigCIx-84">
          <mxGeometry x="1770" width="160" height="40" as="geometry">
            <mxRectangle width="160" height="40" as="alternateBounds" />
          </mxGeometry>
        </mxCell>
        <mxCell id="d2CoVcavQI583WoigCIx-111" value="DINNER_DESCRIPTION" style="shape=partialRectangle;html=1;whiteSpace=wrap;connectable=0;strokeColor=inherit;overflow=hidden;fillColor=none;top=0;left=0;bottom=0;right=0;pointerEvents=1;fontSize=16;" vertex="1" parent="d2CoVcavQI583WoigCIx-84">
          <mxGeometry x="1930" width="190" height="40" as="geometry">
            <mxRectangle width="190" height="40" as="alternateBounds" />
          </mxGeometry>
        </mxCell>
        <mxCell id="d2CoVcavQI583WoigCIx-113" value="ENTREE_DESCRIPTION" style="shape=partialRectangle;html=1;whiteSpace=wrap;connectable=0;strokeColor=inherit;overflow=hidden;fillColor=none;top=0;left=0;bottom=0;right=0;pointerEvents=1;fontSize=16;" vertex="1" parent="d2CoVcavQI583WoigCIx-84">
          <mxGeometry x="2120" width="190" height="40" as="geometry">
            <mxRectangle width="190" height="40" as="alternateBounds" />
          </mxGeometry>
        </mxCell>
        <mxCell id="d2CoVcavQI583WoigCIx-114" value="DESSERT_DESCRIPTION" style="shape=partialRectangle;html=1;whiteSpace=wrap;connectable=0;strokeColor=inherit;overflow=hidden;fillColor=none;top=0;left=0;bottom=0;right=0;pointerEvents=1;fontSize=16;" vertex="1" parent="d2CoVcavQI583WoigCIx-84">
          <mxGeometry x="2310" width="210" height="40" as="geometry">
            <mxRectangle width="210" height="40" as="alternateBounds" />
          </mxGeometry>
        </mxCell>
        <mxCell id="d2CoVcavQI583WoigCIx-119" value="" style="endArrow=none;html=1;rounded=0;edgeStyle=orthogonalEdgeStyle;entryX=0.219;entryY=-0.068;entryDx=0;entryDy=0;entryPerimeter=0;" edge="1" parent="1" target="d2CoVcavQI583WoigCIx-84">
          <mxGeometry width="50" height="50" relative="1" as="geometry">
            <mxPoint x="90" y="1720" as="sourcePoint" />
            <mxPoint x="560" y="1710" as="targetPoint" />
            <Array as="points">
              <mxPoint x="90" y="1670" />
              <mxPoint x="562" y="1670" />
            </Array>
          </mxGeometry>
        </mxCell>
        <mxCell id="d2CoVcavQI583WoigCIx-120" value="" style="endArrow=none;html=1;rounded=0;edgeStyle=orthogonalEdgeStyle;" edge="1" parent="1">
          <mxGeometry width="50" height="50" relative="1" as="geometry">
            <mxPoint x="250" y="1720" as="sourcePoint" />
            <mxPoint x="300" y="1670" as="targetPoint" />
            <Array as="points">
              <mxPoint x="250" y="1670" />
            </Array>
          </mxGeometry>
        </mxCell>
        <mxCell id="d2CoVcavQI583WoigCIx-121" value="" style="endArrow=none;html=1;rounded=0;" edge="1" parent="1">
          <mxGeometry width="50" height="50" relative="1" as="geometry">
            <mxPoint x="400" y="1720" as="sourcePoint" />
            <mxPoint x="400" y="1670" as="targetPoint" />
          </mxGeometry>
        </mxCell>
        <mxCell id="d2CoVcavQI583WoigCIx-122" value="" style="edgeStyle=elbowEdgeStyle;elbow=vertical;endArrow=classic;html=1;curved=0;rounded=0;endSize=8;startSize=8;entryX=0.294;entryY=-0.042;entryDx=0;entryDy=0;entryPerimeter=0;" edge="1" parent="1" target="d2CoVcavQI583WoigCIx-84">
          <mxGeometry width="50" height="50" relative="1" as="geometry">
            <mxPoint x="340" y="1670" as="sourcePoint" />
            <mxPoint x="700" y="1660" as="targetPoint" />
            <Array as="points">
              <mxPoint x="530" y="1630" />
            </Array>
          </mxGeometry>
        </mxCell>
        <mxCell id="d2CoVcavQI583WoigCIx-123" value="" style="edgeStyle=elbowEdgeStyle;elbow=horizontal;endArrow=classic;html=1;curved=0;rounded=0;endSize=8;startSize=8;" edge="1" parent="1" target="d2CoVcavQI583WoigCIx-84">
          <mxGeometry width="50" height="50" relative="1" as="geometry">
            <mxPoint x="750" y="1630" as="sourcePoint" />
            <mxPoint x="910" y="1660" as="targetPoint" />
            <Array as="points">
              <mxPoint x="910" y="1600" />
            </Array>
          </mxGeometry>
        </mxCell>
        <mxCell id="d2CoVcavQI583WoigCIx-124" value="" style="edgeStyle=segmentEdgeStyle;endArrow=classic;html=1;curved=0;rounded=0;endSize=8;startSize=8;entryX=0.429;entryY=0;entryDx=0;entryDy=0;entryPerimeter=0;" edge="1" parent="1" target="d2CoVcavQI583WoigCIx-84">
          <mxGeometry width="50" height="50" relative="1" as="geometry">
            <mxPoint x="910" y="1630" as="sourcePoint" />
            <mxPoint x="1090" y="1640" as="targetPoint" />
          </mxGeometry>
        </mxCell>
        <mxCell id="d2CoVcavQI583WoigCIx-125" value="" style="edgeStyle=segmentEdgeStyle;endArrow=classic;html=1;curved=0;rounded=0;endSize=8;startSize=8;entryX=0.488;entryY=0.038;entryDx=0;entryDy=0;entryPerimeter=0;" edge="1" parent="1" target="d2CoVcavQI583WoigCIx-84">
          <mxGeometry width="50" height="50" relative="1" as="geometry">
            <mxPoint x="1090" y="1630" as="sourcePoint" />
            <mxPoint x="1240" y="1640" as="targetPoint" />
          </mxGeometry>
        </mxCell>
        <mxCell id="d2CoVcavQI583WoigCIx-126" value="" style="edgeStyle=segmentEdgeStyle;endArrow=classic;html=1;curved=0;rounded=0;endSize=8;startSize=8;" edge="1" parent="1" target="d2CoVcavQI583WoigCIx-84">
          <mxGeometry width="50" height="50" relative="1" as="geometry">
            <mxPoint x="1230" y="1630" as="sourcePoint" />
            <mxPoint x="1360" y="1630" as="targetPoint" />
            <Array as="points">
              <mxPoint x="1350" y="1630" />
            </Array>
          </mxGeometry>
        </mxCell>
        <mxCell id="d2CoVcavQI583WoigCIx-127" value="" style="edgeStyle=segmentEdgeStyle;endArrow=classic;html=1;curved=0;rounded=0;endSize=8;startSize=8;entryX=0.586;entryY=-0.042;entryDx=0;entryDy=0;entryPerimeter=0;" edge="1" parent="1" target="d2CoVcavQI583WoigCIx-84">
          <mxGeometry width="50" height="50" relative="1" as="geometry">
            <mxPoint x="1350" y="1630" as="sourcePoint" />
            <mxPoint x="1490" y="1630" as="targetPoint" />
          </mxGeometry>
        </mxCell>
        <mxCell id="d2CoVcavQI583WoigCIx-128" value="" style="edgeStyle=segmentEdgeStyle;endArrow=classic;html=1;curved=0;rounded=0;endSize=8;startSize=8;entryX=0.64;entryY=-0.095;entryDx=0;entryDy=0;entryPerimeter=0;" edge="1" parent="1" target="d2CoVcavQI583WoigCIx-84">
          <mxGeometry width="50" height="50" relative="1" as="geometry">
            <mxPoint x="1490" y="1630" as="sourcePoint" />
            <mxPoint x="1620" y="1630" as="targetPoint" />
          </mxGeometry>
        </mxCell>
        <mxCell id="d2CoVcavQI583WoigCIx-129" value="" style="edgeStyle=segmentEdgeStyle;endArrow=classic;html=1;curved=0;rounded=0;endSize=8;startSize=8;entryX=0.676;entryY=0.038;entryDx=0;entryDy=0;entryPerimeter=0;" edge="1" parent="1" target="d2CoVcavQI583WoigCIx-84">
          <mxGeometry width="50" height="50" relative="1" as="geometry">
            <mxPoint x="1620" y="1630" as="sourcePoint" />
            <mxPoint x="1670" y="1580" as="targetPoint" />
          </mxGeometry>
        </mxCell>
        <mxCell id="d2CoVcavQI583WoigCIx-130" value="" style="edgeStyle=segmentEdgeStyle;endArrow=classic;html=1;curved=0;rounded=0;endSize=8;startSize=8;entryX=0.735;entryY=0.012;entryDx=0;entryDy=0;entryPerimeter=0;" edge="1" parent="1" target="d2CoVcavQI583WoigCIx-84">
          <mxGeometry width="50" height="50" relative="1" as="geometry">
            <mxPoint x="1710" y="1630" as="sourcePoint" />
            <mxPoint x="1760" y="1580" as="targetPoint" />
          </mxGeometry>
        </mxCell>
        <mxCell id="d2CoVcavQI583WoigCIx-131" value="" style="edgeStyle=segmentEdgeStyle;endArrow=classic;html=1;curved=0;rounded=0;endSize=8;startSize=8;entryX=0.803;entryY=-0.015;entryDx=0;entryDy=0;entryPerimeter=0;" edge="1" parent="1" target="d2CoVcavQI583WoigCIx-84">
          <mxGeometry width="50" height="50" relative="1" as="geometry">
            <mxPoint x="1850" y="1630" as="sourcePoint" />
            <mxPoint x="1900" y="1580" as="targetPoint" />
          </mxGeometry>
        </mxCell>
        <mxCell id="d2CoVcavQI583WoigCIx-132" value="" style="edgeStyle=segmentEdgeStyle;endArrow=classic;html=1;curved=0;rounded=0;endSize=8;startSize=8;entryX=0.883;entryY=0.012;entryDx=0;entryDy=0;entryPerimeter=0;" edge="1" parent="1" target="d2CoVcavQI583WoigCIx-84">
          <mxGeometry width="50" height="50" relative="1" as="geometry">
            <mxPoint x="2030" y="1630" as="sourcePoint" />
            <mxPoint x="2080" y="1580" as="targetPoint" />
          </mxGeometry>
        </mxCell>
        <mxCell id="d2CoVcavQI583WoigCIx-133" value="" style="edgeStyle=segmentEdgeStyle;endArrow=classic;html=1;curved=0;rounded=0;endSize=8;startSize=8;entryX=0.961;entryY=0.038;entryDx=0;entryDy=0;entryPerimeter=0;" edge="1" parent="1" target="d2CoVcavQI583WoigCIx-84">
          <mxGeometry width="50" height="50" relative="1" as="geometry">
            <mxPoint x="2230" y="1630" as="sourcePoint" />
            <mxPoint x="2280" y="1580" as="targetPoint" />
          </mxGeometry>
        </mxCell>
      </root>
    </mxGraphModel>
  </diagram>
</mxfile>
